<svg width="2402" height="264" viewBox="0 0 2402 264" fill="none" xmlns="http://www.w3.org/2000/svg">
<path d="M1 263H2401C2397.17 262.5 2389 261.5 2387 261.5C2384.5 261.5 2373 260 2368.5 260H2354C2332.83 259.667 2290 259 2288 259C2285.5 259 2273.5 258 2265 257C2256.5 256 2238.5 256 2236 255C2234 254.2 2224.17 254.667 2219.5 255C2208 253 2184.7 248.9 2183.5 248.5C2182 248 2181 248 2176 246.5C2171 245 2166 242.5 2161.5 240C2157 237.5 2150 234 2145.5 232C2141.9 230.4 2140 228 2139.5 227C2130.83 222.833 2112.8 214.1 2110 212.5C2106.5 210.5 2104 210.5 2098 207.5C2092 204.5 2088 203 2077.5 198.5C2067 194 2065 192.5 2056 188.5C2047 184.5 2048.5 185 2047 185C2045.5 185 2006.5 167 2005.5 166.5C2004.5 166 2002.5 165.5 1994.5 162.5C1986.5 159.5 1982 159 1971 156C1960 153 1960.5 154.5 1952.5 152C1944.5 149.5 1936.5 147 1927.5 144C1918.5 141 1917.5 140 1914 138.5C1910.5 137 1899 134.5 1897 132.5C1895 130.5 1891.5 129.5 1885 127C1878.5 124.5 1880.5 125 1878.5 125C1876.5 125 1857.5 120.5 1851.5 118C1845.5 115.5 1845.5 115 1836 110.5C1826.5 106 1827.5 106.5 1819.5 104.5C1811.5 102.5 1807.5 100 1802.5 98C1797.5 96 1791 92.5 1788 91.5C1785 90.5 1777.5 90 1775 89.5C1772.5 89 1749.5 89.5 1748 89C1746.5 88.5 1742.5 85.5 1740 82C1737.5 78.5 1732.5 75.5 1730.5 74.5C1728.5 73.5 1723.5 70 1723 69.5C1722.5 69 1698.5 59 1695.5 58.5C1692.5 58 1676.5 54 1671 51.5C1665.5 49 1667.5 48 1664 45C1660.5 42 1661 42 1656.5 35.5C1652 29 1651 30 1648.5 29C1646 28 1636 25.5 1632.5 24.5C1629 23.5 1623 23.5 1620.5 23.5C1618 23.5 1606 24.5 1601 24.5C1596 24.5 1591.5 26 1586.5 27C1581.5 28 1580 27 1575.5 27C1571 27 1569.5 25 1566 24.5C1562.5 24 1560.5 23 1556.5 20.5C1552.5 18 1551 17 1547 15C1543 13 1542 12 1538 10C1534 8 1529.5 8 1522.5 7C1515.5 6 1512.5 3.5 1508 2.5C1503.5 1.5 1494.5 1 1490 1C1485.5 1 1486 2 1483 3.5C1480 5 1478 6 1475.5 8C1473 10 1470.5 12 1467.5 15L1462 20.5C1461 21.5 1456.5 24.5 1452 27C1447.5 29.5 1449.5 28.5 1437 29.5C1428.5 28 1429 28.5 1423.5 27C1418 25.5 1419 27 1411.5 26C1404 25 1403.5 24.5 1398 24.5C1392.5 24.5 1392.5 25.5 1389 26C1385.5 26.5 1386.5 28.5 1385 31C1383.5 33.5 1380 32 1374.5 33.5C1369 35 1370 33.5 1365 33.5H1355.5C1351.73 33.5 1349.74 33.0556 1345.75 32.1667L1345 32C1340.5 31.0001 1340 30.5 1337.5 29.5C1335 28.5 1332.5 28.5 1330.5 28C1328.9 27.6 1326.17 27.1667 1325 27H1319C1318 27 1317 27.5 1314 28.5C1311 29.5 1311.5 30.5 1309 32C1306.5 33.5001 1306.5 34.5 1305 35.4999C1303.5 36.4999 1300 35.4999 1297 35.4999C1294 35.4999 1296 34.5 1295 32C1294 29.5 1292.5 32 1291.5 32C1290.5 32 1289.5 35 1287 36.4999C1284.5 37.9998 1284.5 38.5 1281 39.9998C1277.5 41.4996 1275 41.9999 1271.5 41.9999C1268 41.9999 1266 40.9999 1262 40.9999C1258.8 40.9999 1259 40.3332 1259.5 39.9998C1257.17 38.8332 1251.8 36.2999 1249 35.4999C1245.5 34.4999 1244.5 35.4999 1242 36.4999C1239.5 37.4999 1239.5 38.9999 1238.5 39.9998C1237.5 40.9997 1234.5 41.9999 1232.5 42.9999C1230.5 43.9999 1227.5 42.9999 1225 42.9999C1222.5 42.9999 1217 42.4999 1213.5 41.9999C1210 41.4999 1209 40.9999 1207.5 39.9998C1206 38.9998 1201 39.9998 1200 39.9998C1199 39.9998 1194.5 38.9998 1192.5 40.9999C1190.5 42.9999 1188.5 40.9999 1186 43.4999C1183.5 45.9999 1179.5 45.9998 1174.5 47.5C1169.5 49.0001 1170.5 48.9998 1166.5 49.9998C1162.5 50.9998 1158.5 51.4998 1153.5 52.9998C1148.5 54.4998 1148 52.9998 1143.5 52.9998C1139 52.9998 1137 51.4998 1131 51.4998H1120C1117 51.4998 1099.5 49.9998 1095 49.9998C1090.5 49.9998 1089.5 51.4998 1084 52.9998C1078.5 54.4998 1081 55 1077.5 58.4998C1074 61.9997 1070.5 60.4998 1066.5 61.4998C1062.5 62.4998 1061.5 60.4998 1058.5 58.4998C1055.5 56.4998 1048.5 55 1043.5 51.4998C1038.5 47.9997 1038.5 48.9998 1035 47.5C1031.5 46.0001 1026.5 43.4999 1025 40.9999C1023.8 38.9999 1018.17 40.1665 1015.5 40.9999L1010.5 43.4999C1010 44.8332 1008.6 47.5 1007 47.5C1005 47.5 994.5 48 992.5 47.5C990.5 47 987 49 978.5 55C975 58.5 967.5 62 963 64.5C958.5 67 957 70.5 954 74C951 77.5 944.5 76.5 928.5 76.5C922 73.5 921 76.5 914.5 76.5C909.3 76.5 900.333 74.8333 896.5 74C892.5 74.1666 883.2 74.9 878 76.5C871.5 78.5 872.5 80.5 869.5 83C867.1 85.0001 861.5 83.8334 859 83H835.5C829.5 83 823.5 82.5 818 83C812.5 83.5 809 87.5 806 89C803 90.5 800.5 91.5 797 93.5C793.5 95.5 781 105.5 777 107.5C773 109.5 766.5 111 762 112C757.5 113 741.5 119.5 737 121C732.5 122.5 731 128 726.5 131.5C722 135 716 138.5 711 141.5C707 143.9 701.333 148.5 699 150.5L684 165L657.5 177C653.667 177.833 645.5 179.5 643.5 179.5C641 179.5 629 181 623 181C617 181 614 186 609 186C604 186 601 188 595 188C589 188 587.5 188 585.5 186C583.5 184 578.5 177 576.5 177C574.5 177 565.5 172 560 172C555.6 172 556.833 177 558 179.5C551.167 183.167 537.2 190.6 536 191C534.5 191.5 525.5 195 522 197C518.5 199 512 197 509 197H499.5H492H480H473C470.5 197 467.5 198 464 197C460.5 196 456 194.5 452.5 193C449 191.5 442.5 189.5 438.5 188C434.5 186.5 432 183.5 430.5 182.5C429 181.5 423.5 181 420.5 181C417.5 181 413.5 179.5 410.5 179.5C407.5 179.5 404 181 400.5 181C397 181 393.5 181.5 391 181C388.5 180.5 379 180.5 376 179.5C373 178.5 369 177 367.5 177C366.3 177 364.333 173.667 363.5 172H341H321L308.5 165H269L256.5 154.5H240H217L204.5 144L178.5 138L166 144H142.5H120.5L91.5 154.5L62.5 165L25 172L1 180.5V263Z" fill="url(#paint0_linear_227_9)" stroke="black"/>
<defs>
<linearGradient id="paint0_linear_227_9" x1="1201" y1="1" x2="1201" y2="263" gradientUnits="userSpaceOnUse">
<stop/>
<stop offset="1" stop-color="#6B338D"/>
</linearGradient>
</defs>
</svg>
