<svg width="2402" height="274" viewBox="0 0 2402 274" fill="none" xmlns="http://www.w3.org/2000/svg">
<path d="M2388 87.6667L2400 96.6667H2401V272.667H1L1.5 58.1667C3 57.5 6.2 55.9667 7 55.1667C8 54.1666 12.5 52.1667 13 51.1667C13.5 50.1666 16.5 45.1667 17.5 43.6667C18.5 42.1666 26 40.1667 27 38.6667C27.8 37.4667 34 32.8334 37 30.6667C40.3333 27.8334 47.5 21.6667 49.5 19.6667C52 17.1666 61 13.6667 66 11.1667C71 8.66659 75.5 6.16667 79.5 3.16667C83.5 0.166667 86.5 3.16667 91 1.66667C95.5 0.166667 100 1.66667 102 1.66667C103.6 1.66667 111 2.66667 114.5 3.16667L139.5 6.16667L147 11.1667C148 12.6667 150.5 16.4667 152.5 19.6667C155 23.6667 156 26.6667 156.5 28.1667C157 29.6667 156.5 32.6667 157.5 35.1667C158.5 37.6667 161 39.6667 164.5 43.6667C168 47.6667 170.5 50.1667 172.5 51.1667C174.5 52.1667 178.5 57.1667 182.5 61.1667C186.5 65.1667 186.5 69.1667 186 73.1667C185.5 77.1667 186.5 83.1667 188.5 86.1667C190.5 89.1667 194.5 94.1667 198 94.1667C201.5 94.1667 207.5 97.6667 212 97.6667C216.5 97.6667 220 98.6667 223 97.6667C226 96.6667 231 95.6667 235 94.1667C239 92.6667 242.5 89.1667 246.5 86.1667C250.5 83.1667 253 79.1667 254.5 77.6667C256 76.1667 265.5 71.1667 267.5 69.1667C269.5 67.1667 274.5 63.1667 279 58.1667C283.5 53.1667 293.5 52.1667 296 51.1667C298 50.3667 304.5 48.8333 307.5 48.1667C309 49.5 312.6 52.7667 315 55.1667C318 58.1667 322 57.6667 325.5 58.1667C328.3 58.5667 332 60.3333 333.5 61.1667C335.5 63.3333 339.9 68.3667 341.5 71.1667C343.5 74.6667 348.5 81.6667 349 82.1667C349.4 82.5667 357.167 88.6667 361 91.6667C363.167 94.1667 367.8 99.5667 369 101.167C370.5 103.167 372 105.167 373 106.167C373.8 106.967 380.667 114.167 384 117.667L389.5 124.667C391.833 127.5 397.1 133.167 399.5 133.167C402.5 133.167 409.5 143.167 415 147.667C420.5 152.167 429 157.167 433 159.667C437 162.167 438 166.667 442.5 172.667C447 178.667 447 181.667 449.5 187.667C452 193.667 454 191.167 455.5 193.167C457 195.167 468.5 204.167 471 204.167C473 204.167 474.833 202.5 475.5 201.667C479 202.167 486.9 202.867 490.5 201.667C495 200.167 503 198.167 505.5 196.667C508 195.167 516 189.667 519 187.667C522 185.667 536 178.667 539 176.167C541.4 174.167 545.667 170.667 547.5 169.167C554.667 164.833 569.1 155.767 569.5 154.167C569.9 152.567 576.333 149.167 579.5 147.667C582.5 143.667 589 135.167 591 133.167C593.5 130.667 595 125.667 596 124.667C597 123.667 613 115.667 614.5 114.667C615.7 113.867 619.667 111 621.5 109.667C626 107.667 636.4 103.267 642 101.667C647.6 100.067 658.667 95.6667 663.5 93.6667C669.167 91.3333 681.1 86.5667 683.5 86.1667C686.5 85.6667 690.5 84.6667 694.5 83.6667C698.5 82.6667 704 81.1667 712 79.1667C720 77.1667 722 76.1667 723 76.1667C724 76.1667 727 73.6667 728 72.6667C729 71.6667 734 70.1667 735.5 68.1667C737 66.1667 738.5 65.6667 740.5 63.6667C742.5 61.6667 743.5 62.1667 746 61.6667C748.5 61.1667 749 61.6667 750.5 61.6667C752 61.6667 753 62.6667 754 63.1667C755 63.6667 758 64.6667 762 65.6667C766 66.6667 768 67.1667 770 68.1667C772 69.1667 775 71.1667 777.5 72.6667C780 74.1667 781 76.1667 782 76.1667C782.8 76.1667 787.667 78.8333 790 80.1667C793.167 80.1667 800.1 79.9667 802.5 79.1667C805.5 78.1667 806 79.1667 809 79.1667H817.5C821.5 79.1667 822 80.1667 823 80.1667C824 80.1667 828 82.1667 829 82.1667C830 82.1667 835.5 84.6667 837 85.1667C838.5 85.6667 842.5 86.1667 846 86.1667C849.5 86.1667 854 85.6667 855 85.6667C856 85.6667 862 83.1667 865 82.1667C867.4 81.3667 867.667 80.5 867.5 80.1667C867.667 79.8333 868.8 78.7667 872 77.1667C876 75.1667 874 76.1667 875.5 76.1667C877 76.1667 879.5 74.1667 882.5 72.6667C885.5 71.1667 886 70.6667 887 70.1667C888 69.6667 892 67.1667 893 66.6667C894 66.1667 895.5 62.6667 896 61.6667C896.5 60.6667 898 59.6667 898.5 59.6667C899 59.6667 905.5 57.1667 908.5 56.1667C911.5 55.1667 911.5 55.1667 913.5 54.6667C915.5 54.1667 917.5 53.6667 920 53.1667C922.5 52.6667 922.5 53.1667 924 53.6667C925.5 54.1667 928 55.1667 930 56.1667C932 57.1667 933 57.1667 934 57.1667C935 57.1667 938 58.6667 940 59.6667C942 60.6667 945.5 62.1667 947 62.6667C948.2 63.0667 950.167 63.1667 951 63.1667C951.667 63.5 953.2 64.3667 954 65.1667C955 66.1667 956.5 66.6667 957.5 67.1667C958.5 67.6667 960.5 67.1667 962 67.1667C963.5 67.1667 966.5 67.6667 968 68.1667C969.5 68.6667 971 68.6667 971.5 68.6667C972 68.6667 977.5 71.6667 980 72.6667C982.5 73.6667 986.5 75.6667 987.5 76.1667C988.3 76.5667 991.5 77.6667 993 78.1667C993.667 78.6667 995.2 79.8667 996 80.6667L999.5 84.1667C1000.5 85.1667 1004 88.1667 1005 89.1667C1006 90.1667 1009 92.1667 1011.5 93.1667C1013.5 93.9667 1013.67 93.5 1013.5 93.1667C1015.5 92.6667 1019.6 91.4667 1020 90.6667C1020.5 89.6667 1023 90.1667 1025 89.1667C1027 88.1667 1031.5 89.6667 1033.5 90.1667C1035.5 90.6667 1040 93.1667 1040.5 93.1667C1040.9 93.1667 1045 95.8333 1047 97.1667C1047.5 98 1048.8 99.7667 1050 100.167C1051.5 100.667 1051.5 103.667 1052.5 103.667C1053.5 103.667 1055.5 106.167 1057 107.667C1058.5 109.167 1060.5 109.667 1063 110.667C1065.5 111.667 1067.5 113.667 1069.5 113.667C1071.5 113.667 1075 114.167 1076 113.667C1077 113.167 1080.5 113.167 1082 112.667C1083.5 112.167 1085 111.667 1086 110.667C1087 109.667 1090 108.667 1092.5 107.667C1095 106.667 1095 106.167 1097 105.667C1099 105.167 1102 105.167 1105 105.167C1108 105.167 1110 105.667 1112 106.667C1114 107.667 1115.5 109.667 1117.5 112.667C1119.1 115.067 1120.5 117.333 1121 118.167C1124.5 118.833 1131.9 120.167 1133.5 120.167C1135.5 120.167 1138 122.167 1140.5 122.167H1145.5H1151C1153.5 122.167 1157 120.667 1160 120.167C1163 119.667 1167.5 117.167 1170.5 116.167C1173.5 115.167 1180 110.167 1181 109.667C1182 109.167 1189 104.167 1189.5 103.667C1190 103.167 1194.5 100.167 1195.5 100.167C1196.5 100.167 1199.5 96.6667 1200 96.6667C1200.5 96.6667 1205 92.1667 1206 91.1667C1207 90.1667 1209.5 89.1667 1211.5 88.1667C1213.5 87.1667 1218.5 82.6667 1220.5 81.6667C1222.1 80.8667 1224.17 79.3333 1225 78.6667L1230.5 73.1667C1232 71.6667 1232.5 72.1667 1234.5 71.1667C1236.5 70.1667 1237 69.6667 1239 69.6667C1241 69.6667 1242 67.6667 1243.5 66.6667C1245 65.6667 1246 66.6667 1248 65.6667C1250 64.6667 1250.5 65.6667 1253 65.6667C1255.5 65.6667 1256 65.6667 1258 64.6667C1260 63.6667 1261.5 63.6667 1264.5 63.6667C1267.5 63.6667 1268 62.6667 1272.5 63.6667C1274 64.1667 1274.5 65.1667 1276 65.6667C1277.5 66.1667 1279 66.6667 1280 66.6667H1283.5C1284.7 66.6667 1285.33 66 1285.5 65.6667L1289.5 66.6667L1292.5 69.6667C1293 70.1667 1294.5 71.6667 1295.5 73.1667C1296.5 74.6667 1298.5 76.6667 1300 78.6667C1301.2 80.2667 1301.17 83 1301 84.1667C1303.5 85 1308.7 86.9667 1309.5 88.1667C1310.5 89.6667 1311 91.1667 1312 91.1667C1313 91.1667 1314 94.6667 1315.5 96.6667C1317 98.6667 1317 100.167 1317 101.667C1317 103.167 1319 104.167 1320 105.667C1321 107.167 1324.5 107.167 1327.5 107.167C1330.5 107.167 1331.5 108.167 1332.5 108.167C1333.5 108.167 1335 108.167 1338.5 107.167C1342 106.167 1343 105.667 1344 105.667C1345 105.667 1346.5 106.667 1348.5 107.167C1350.5 107.667 1355 108.167 1358.5 108.167C1362 108.167 1362.5 108.167 1364.5 107.167C1366.5 106.167 1367.5 105.667 1368.5 104.167C1369.5 102.667 1370.5 101.667 1372 100.167C1373.5 98.6667 1374.5 96.6667 1377 93.6667C1379 91.2667 1379.83 91 1380 91.1667L1385.5 89.6667H1393.5C1396 89.6667 1399 89.1667 1400.5 89.6667C1402 90.1667 1406.5 94.1667 1407.5 95.6667C1408.5 97.1667 1409.5 100.667 1411.5 105.667C1413.5 110.667 1412 108.167 1413 112.167C1414 116.167 1416 117.167 1419 117.167C1422 117.167 1423.5 119.667 1427.5 119.667C1431.5 119.667 1434 118.167 1437 117.167C1440 116.167 1444.5 113.667 1446 113.167C1447.2 112.767 1449.5 109.667 1450.5 108.167C1454 106.333 1461.4 102.467 1463 101.667C1464.6 100.867 1479.33 101.333 1486.5 101.667L1505.5 102.667L1514.5 105.667L1518 108.167C1519.17 109.5 1521.9 112.167 1523.5 112.167C1525.5 112.167 1526 116.667 1529 120.667C1532 124.667 1533.5 126.167 1535 126.167C1536.2 126.167 1540.83 132.167 1543 135.167C1548 137.333 1559.1 141.667 1563.5 141.667C1567.9 141.667 1570.33 144.667 1571 146.167H1586.5H1600.5L1616.5 141.667L1640 132.667C1641.5 132.833 1644.7 133.067 1645.5 132.667C1646.5 132.167 1658.5 127.667 1662 126.167C1665.5 124.667 1668 122.667 1671.5 120.667C1675 118.667 1689 113.667 1694.5 112.167C1700 110.667 1704 108.167 1713.5 105.667C1723 103.167 1732 99.1667 1737.5 97.6667C1743 96.1667 1749.5 96.1667 1751 95.1667C1752.2 94.3667 1770.83 86.1667 1780 82.1667C1781.5 82.5 1786.1 83.6667 1792.5 85.6667C1800.5 88.1667 1802 89.1667 1807.5 90.6667C1813 92.1667 1817.5 93.6667 1823.5 93.6667C1829.5 93.6667 1834 91.6667 1841 93.6667C1848 95.6667 1851 95.6667 1853 96.1667C1855 96.6667 1864.5 97.6667 1868 97.6667C1871.5 97.6667 1873.5 94.6667 1875.5 93.6667C1877.5 92.6667 1876.5 91.1667 1879.5 89.1667C1882.5 87.1667 1885 86.1667 1888.5 85.6667C1892 85.1667 1894.5 83.6667 1896 82.1667C1897.5 80.6667 1902 75.1667 1905 72.6667C1908 70.1667 1910 69.1667 1915.5 68.1667C1921 67.1667 1927.5 66.1667 1930 65.6667C1932 65.2667 1935.17 62.8333 1936.5 61.6667C1941.5 59.3333 1952.2 54.1667 1955 52.1667C1958.5 49.6667 1960.5 52.1667 1966 50.1667C1971.5 48.1667 1977 46.1667 1979.5 44.1667C1982 42.1667 1981.5 40.6667 1984 38.6667C1986 37.0667 1993.17 36 1996.5 35.6667L1999.5 38.6667C2004.33 37.3333 2014.5 34.3667 2016.5 33.1667C2019 31.6667 2022 33.1667 2026 33.1667H2044C2051 33.1667 2060.5 35.6667 2063 35.6667C2065 35.6667 2072.83 39 2076.5 40.6667L2118 56.6667C2122.33 56 2131.5 54.1667 2133.5 52.1667C2136 49.6667 2137.5 46.1667 2140 43.1667C2142.5 40.1667 2143 43.1667 2148 40.6667C2153 38.1667 2158 37.6667 2160.5 35.6667C2163 33.6667 2180.5 30.1667 2184 28.1667C2187.5 26.1667 2191 26.1667 2196 26.1667C2201 26.1667 2204.5 28.1667 2207 30.1667C2209.5 32.1667 2212.5 35.6667 2215.5 35.6667H2225.5C2226.83 34.1667 2229.7 30.9667 2230.5 30.1667C2231.5 29.1667 2238 26.1667 2240 26.1667C2242 26.1667 2247.5 27.1667 2250 28.1667C2252.5 29.1667 2256 32.1667 2257.5 35.6667C2259 39.1667 2261.5 40.6667 2263 40.6667C2264.2 40.6667 2269.17 42.3333 2271.5 43.1667L2273.5 40.6667C2276.67 39 2283.5 35.6667 2285.5 35.6667C2288 35.6667 2294 40.6667 2297.5 43.1667C2301 45.6667 2307 51.1667 2312 54.6667C2317 58.1667 2339 67.6667 2342 68.6667C2344.4 69.4667 2360 75.3333 2367.5 78.1667L2388 87.6667Z" fill="url(#paint0_linear_226_6)" stroke="black"/>
<defs>
<linearGradient id="paint0_linear_226_6" x1="1201" y1="1" x2="1201" y2="272.667" gradientUnits="userSpaceOnUse">
<stop offset="0.119792"/>
<stop offset="1" stop-color="#472768"/>
</linearGradient>
</defs>
</svg>
