<svg width="2402" height="295" viewBox="0 0 2402 295" fill="none" xmlns="http://www.w3.org/2000/svg">
<path d="M16.5 32.5L2 42H1V294H2401V5H2398H2394.5C2392.67 6 2388.7 8.2 2387.5 9C2386 10 2381.5 13.5 2379 15C2376.5 16.5 2373 19.5 2372 20.5C2371.2 21.3 2365 26.5 2362 29C2357.17 32.6667 2346.8 40.2 2344 41C2340.5 42 2338.5 44 2336 44.5C2333.5 45 2329 50 2327 52C2325 54 2322 57.5 2318 60.5C2314 63.5 2312 68 2309 71.5C2306 75 2302 71.5 2300.5 71.5C2299 71.5 2289 66.5 2288 66.5C2287 66.5 2284.5 65.5 2282.5 63.5C2280.5 61.5 2280.5 63.5 2278.5 63.5H2275C2274.33 64 2272.7 65.3 2271.5 66.5C2270 68 2266.5 70 2264 71.5C2261.5 73 2261 74.5 2259 77C2257 79.5 2255 81 2252.5 83C2250 85 2248.5 88.5 2246.5 91.5C2244.5 94.5 2238.5 96.5 2237 97C2235.5 97.5 2227 98.5 2224.5 99C2222 99.5 2213.5 101.5 2205 101.5C2196.5 101.5 2198.5 101 2195.5 101.5C2193.1 101.9 2189.83 103.667 2188.5 104.5C2186.67 106 2182.4 109.4 2180 111C2177 113 2174 118 2172 120.5C2170 123 2163.5 139.5 2162 141C2160.8 142.2 2147.17 164.833 2140.5 176C2140 176.667 2138.3 178.4 2135.5 180C2132 182 2129 184.5 2126.5 186.5C2124 188.5 2124 191.5 2121.5 194.5C2119 197.5 2115.5 202 2112.5 202H2109L2094 191.5L2088.5 186.5C2087.33 185 2084.3 181.8 2081.5 181C2078 180 2076.5 182 2075 183.5C2073.5 185 2075 186.5 2075 189.5C2075 192.5 2075.5 193.5 2075 196C2074.5 198.5 2071.5 195.5 2066.5 196C2061.5 196.5 2061.5 197 2060.5 198C2059.5 199 2059.5 202 2058 205.5C2056.5 209 2055.5 207.5 2052.5 210C2049.5 212.5 2050 209.5 2045 210C2040 210.5 2042.5 211 2040.5 212.5C2038.5 214 2038.5 216 2037 219.5C2035.5 223 2035 222 2032 225.5C2029 229 2029.5 229.5 2028 232.5C2026.5 235.5 2025.5 237 2023 239.5C2020.5 242 2021.5 243.5 2019.5 246.5C2017.5 249.5 2018.5 252.5 2017.5 255C2016.5 257.5 2016 256.5 2015 256.5C2014 256.5 2012 256 2006.5 255C2001 254 1999 254.5 1992.5 252.5C1987.3 250.9 1985.33 250.167 1985 250C1979.17 248 1967.1 243.9 1965.5 243.5C1963.5 243 1963.5 241.5 1954 234C1944.5 226.5 1946 231 1943 231.5C1940 232 1939 235.5 1936 239.5C1933 243.5 1934 241.5 1931 245.5C1928 249.5 1928 247.5 1922 251C1916 254.5 1920 253 1915.5 250C1911 247 1911 247 1909 245.5C1907 244 1907.5 243 1898 238C1888.5 233 1893.5 235.5 1889 235.5C1884.5 235.5 1883.5 236.5 1880 238C1876.5 239.5 1874 240.5 1872 241.5C1870 242.5 1866.5 241.5 1863 241.5C1859.5 241.5 1858.5 240.5 1855 238C1851.5 235.5 1851 235.5 1849.5 234C1848 232.5 1845 231 1839.5 229.5C1834 228 1830 225 1822.5 222C1815 219 1810.5 218 1804 214C1797.5 210 1794 207.5 1790.5 205.5C1787.7 203.9 1787 201.5 1787 200.5C1774.67 195.5 1749.5 185.2 1747.5 184C1745 182.5 1746 183 1741 180C1736.33 177.196 1735.58 176.576 1733.06 174.466L1732.5 174C1729.5 171.5 1727 172 1722 169.5C1717 167 1710.5 164.5 1708 162.5C1705.5 160.5 1703.5 164.5 1701 164.5C1698.5 164.5 1695.5 168 1693.5 169.5C1691.5 171 1686 173 1680.5 172C1675 171 1675 171 1669.5 169.5C1664 168 1661.5 167 1657 164.5C1652.5 162 1646 160 1644 159.5C1642 159 1612.5 138.5 1606 135C1602.5 133 1600 132.5 1595.5 130C1591 127.5 1589.5 126.5 1587 123.5C1584.5 120.5 1580 119 1574.5 115.5C1569.18 112.117 1562.93 109.201 1555.75 105.85L1555 105.5C1547.5 102 1548 100.5 1545 99C1542 97.5 1532 90.5 1526 89C1520 87.5 1515 87 1510 85.5C1505 84 1504 84.5 1501 85.5C1498 86.5 1498.5 87 1495 89C1491.5 91 1490.5 90.5 1487.5 92.5C1484.5 94.5 1481 92.5 1479 92.5H1464H1457H1445.5H1431.5C1427.5 92.5 1427.5 90.5 1425.5 90.5C1423.5 90.5 1421 88 1417.5 87C1414 86 1410.5 87 1406 87H1395C1392 87 1391 84.5 1390 84.5C1389 84.5 1378.5 83 1373 83C1367.5 83 1364 84 1361 84.5C1358 85 1354.5 86 1352 87C1349.5 88 1341.5 87 1336.5 87C1331.5 87 1324 88.5 1317 90.5C1310 92.5 1311 93.5 1306 95C1301 96.5 1301.5 98 1299.5 100.5C1297.5 103 1292.5 106 1291 107.5C1289.5 109 1284 112 1282.5 112.5C1281 113 1277.5 121 1276 123C1274.5 125 1272.5 126.5 1268.5 129C1265.3 131 1263.5 131.5 1263 131.5C1261.5 132.333 1257.8 133.5 1255 131.5C1251.5 129 1244 124.5 1242.5 124.5C1241 124.5 1239 125.5 1236.5 126.5C1234 127.5 1233.5 126.5 1231.5 126.5H1228L1222 123C1220.67 121.333 1217.5 117.1 1215.5 113.5C1213 109 1212.5 109 1209.5 106C1206.5 103 1207 103.5 1203.5 100.5C1200 97.5 1198.5 97 1197 95C1195.8 93.4 1193.5 89 1192.5 87C1190.67 83.5 1185.8 75.9 1181 73.5C1175 70.5 1167.5 67 1165.5 67C1163.5 67 1153.5 62.5 1150 60.5C1146.5 58.5 1140 59.5 1137 59.5H1127H1113C1110 59.5 1109.5 62 1108.5 62.5C1107.5 63 1104.5 65.5 1101.5 67C1099.1 68.2 1097.83 69.1667 1097.5 69.5H1094.5C1091.5 69.1667 1085.2 68.7 1084 69.5C1082.5 70.5 1079.5 75 1078.5 76.5C1077.5 78 1074.5 86 1073.5 87L1065.5 95C1064.5 94.6667 1062.1 93.8 1060.5 93C1058.5 92 1057.5 91 1056 90.5C1054.5 90 1053.5 90 1051.5 89C1049.5 88 1045.5 87.5 1044 87C1042.5 86.5 1039 85 1037 84C1035 83 1032 81.5 1031.5 81C1031.1 80.6 1029 80.1667 1028 80L1026.5 79C1026 78.3333 1024.7 76.9 1023.5 76.5C1022 76 1021 76 1020 75.5C1019 75 1016.5 75 1015 75C1013.5 75 1012 74.5 1009.5 74.5H1006.5C1003.83 75.1667 998.4 76.6 998 77C997.5 77.5 998 78 998 78.5C998 79 996.5 79.5 996 80.5C995.5 81.5 993.5 81 993 81C992.5 81 987.5 81.5 986 82C984.5 82.5 984.5 82.5 983.5 83C982.5 83.5 981.5 83.5 980 84C978.5 84.5 974.5 84.5 974 84.5C973.6 84.5 970.5 84.8333 969 85H965.5C964 85 963.5 86 962 86C960.5 86 959.5 87 958.5 87C957.5 87 957 87.5 954.5 87.5C952 87.5 952.5 88 951.5 88C950.5 88 950 88.5 948.5 88.5C947 88.5 945 89.5 944.5 89.5C944.1 89.5 942.333 89.8333 941.5 90C940.167 90.3333 937.4 91 937 91C936.5 91 931.5 91.5 931 91.5C930.6 91.5 927.833 92.5 926.5 93L922.5 92.5H916.5C916.1 92.5 914.667 92.8333 914 93L911.5 94.5L903.5 95C901.667 94.8333 897.6 94.5 896 94.5C894 94.5 891.5 96.5 891 97C890.5 97.5 886.5 98.5 886 99C885.6 99.4 882.833 99.1667 881.5 99L879 97.5C877 96.6667 872.8 94.9 872 94.5C871 94 867 90.5 866.5 90C866.1 89.6 858.667 87.8333 855 87C851.833 86.8333 845.4 86.6 845 87L844 88C842.667 88.5 839.8 89.5 839 89.5H833C831.8 89.5 827.833 90.8333 826 91.5L817 89.5C816 89.1667 811.5 89.2 801.5 92C789 95.5 780.5 91.5 778.5 92.5C776.5 93.5 764.5 86 762 84.5C760 83.3 756.833 82 755.5 81.5L750.5 80.5C749.5 80.5 747 81.1 745 83.5L738.5 83L734 81.5C734.667 81.3333 733.7 81.1 724.5 81.5C713 82 700 72 698.5 71C697 70 695.5 69 695 68.5C694.6 68.1 692.5 67 691.5 66.5L688 64.5L683 64L680.5 63C679.167 62.5 676.4 61.4 676 61C675.6 60.6 673.833 60.8333 673 61C670.833 60.8333 666.3 60.5 665.5 60.5C664.5 60.5 664 61.5 664 62C664 62.5 662.5 63 662 63C661.6 63 660.167 64.3333 659.5 65L655.5 65.5L650.5 66L646.5 66.5C645.833 66.6667 644.3 66.4 643.5 64C642.5 61 643 64 642.5 65C642 66 641 64.5 640 65C639 65.5 639 64.5 638.5 64.5C638 64.5 637.5 63.5 636.5 63C635.5 62.5 635 62 634.5 61.5C634 61 632.5 61.5 631 59C629.5 56.5 628 58.5 626 60C625.5 61.5 625.5 60.5 625 61C624.6 61.4 624.167 61.5 624 61.5L623 60.5C622.5 60 622 59 621 58.5C620 58 619 57 618 56.5C617 56 617.5 56 615.5 54.5C613.9 53.3 614.167 53.6667 614.5 54L612 52C611.333 51.5 610 50.4 610 50C610 49.5 608.5 48.5 608 48C607.5 47.5 607 47 606 46.5C605.2 46.1 604.667 46.3333 604.5 46.5C603.833 47.1667 602.5 48.4 602.5 48C602.5 47.5 600 47 598.5 46C597 45 595 43.5 594 42C593 40.5 592 40.5 591 40C590 39.5 588 39.5 586.5 39C585 38.5 583 38.5 582 38C581 37.5 579 39 578 39C577 39 576 39.5 575 39.5C574 39.5 572.5 39.5 571 39C569.5 38.5 568.5 38.5 568 38.5C567.5 38.5 561 37.5 560 37C559 36.5 556.5 35.5 556 35.5H554H549.5L549 33.5L547.5 32.5L544 31L541.5 32C541.333 32.3333 540.9 33.1 540.5 33.5C540 34 538 35.5 537.5 35.5C537 35.5 536 34.5 535.5 34.5C535 34.5 534.5 33.5 534.5 33C534.5 32.6 531.5 33.1667 530 33.5L527.5 36L526 37.5L525 36.5L520 34.5C519.167 34.8333 517.4 35.5 517 35.5C516.5 35.5 515.5 37 514.5 37C513.5 37 511.5 39 510.5 39.5C509.5 40 509 42.5 508.5 43C508.1 43.4 506.667 45.1667 506 46C504.667 47 501.9 49.1 501.5 49.5C501 50 499 52.5 497.5 53.5C496 54.5 495 56 494.5 56H489.5C487.833 55.8333 484.2 55.6 483 56C481.5 56.5 479 58 478 58C477 58 473.5 61.5 472.5 61.5C471.5 61.5 468 66.5 467.5 66.5C467 66.5 464 68.5 463 68.5H459.5C459 68.5 455.5 67 454 66.5C452.8 66.1 451.5 65.3333 451 65C449.5 64.3333 446.1 62.7 444.5 61.5C442.5 60 440 58.5 440 58C440 57.5 436 52.5 435 51.5C434.2 50.7 433.333 48.5 433 47.5C431.5 46.1667 428.2 43.3 427 42.5C425.5 41.5 424.5 41 423.5 40.5C422.5 40 421 39.5 419 39C417 38.5 418.5 39.5 418 39.5C417.5 39.5 414 42.5 412.5 42.5C411 42.5 411 42 410.5 41.5C410.1 41.1 408 40 407 39.5L406 41.5C405.5 42.5 404 42.5 403 42.5C402 42.5 400 43 399 42.5C398 42 396.5 42 396 41.5C395.6 41.1 392.833 41 391.5 41L389.5 42L388.5 44L385.5 44.5C384.5 45.1667 382.4 46.5 382 46.5C381.5 46.5 380.5 48 380 48.5C379.5 49 378 50.5 377 51C376.2 51.4 374.667 52.8333 374 53.5L373.5 54C372.833 53.8333 371.3 53.4 370.5 53C369.5 52.5 368.5 52 367.5 51C366.5 50 366.5 49.5 365.5 48.5C364.5 47.5 362.5 48 362 48.5C361.5 49 361 49 360 50.5C359.2 51.7 359 51.3333 359 51H355C354 51 354.5 49.5 354 49C353.6 48.6 352.833 48.8333 352.5 49C352.167 49.6667 351.4 51 351 51C350.6 51 349.5 52.3333 349 53H344.5C343.7 53 343.167 52.3333 343 52L341 50H337.5C336 50 335.5 50.5 333.5 52C333 53 332.5 53 332 53C331.6 53 330.833 53.3333 330.5 53.5L329 51L327 50L326.5 51L326 53.5H323.5C322.833 52.8333 321.5 51.3 321.5 50.5C321.5 49.7 319.5 48.5 318.5 48L314.5 49.5V50.5L312.5 53.5L308.5 53L306.5 50.5L305.5 48L301.5 47.5C299.5 45.8333 295.3 42.5 294.5 42.5H290C289 42.5 286 42 285 41.5C284 41 281.5 40.5 279 39.5C277 38.7 275.5 37.5 275 37L270.5 33L266 31C264 32 259.8 34 259 34C258.2 34 256.333 34.6667 255.5 35C254.667 34.6667 252.9 34 252.5 34C252 34 250.5 31.5 249.5 30C248.7 28.8 247.167 27.8333 246.5 27.5C246.167 27.8333 245.3 28.8 244.5 30C243.5 31.5 243 32 242.5 33C242 34 240.5 34.5 240 35C239.5 35.5 237.5 34 237 34C236.5 34 233 32.5 232.5 32C232.1 31.6 232 30.5 232 30C231.833 29 231.4 26.7 231 25.5C230.5 24 227.5 24.5 227 24.5C226.6 24.5 225.833 25.1667 225.5 25.5H220.5C219.7 25.5 217.5 25.1667 216.5 25L213 23.5L209 25C207.667 26.1667 204.9 28.5 204.5 28.5C204.1 28.5 202 29.5 201 30L199 28.5C198.333 26.6667 197 22.8 197 22C197 21 196 19.5 195.5 18.5C195 17.5 191.5 15.5 191 15C190.6 14.6 190.167 12.8333 190 12V7C190 6.6 188.333 4.83333 187.5 4C186.167 4 183.4 3.8 183 3C182.5 2 178 3 177.5 3C177.1 3 175 4 174 4.5H168L165.5 1.5L160.5 1L154.5 4L147 7.5L140.5 14C140.1 14.4 137.667 17.1667 136.5 18.5L132 17.5L127 16.5L120.5 17.5V20.5L118 23L110.5 25.5L104.5 25L98 28.5L95 31.5L91 32.5L86.5 37H74L66.5 42L61 37L57 42L46 46L42 37H28.5L16.5 32.5Z" fill="black" stroke="black"/>
</svg>
